<?xml version="1.0" encoding="utf-8" ?>
<svg baseProfile="full" height="200mm" version="1.1" viewBox="0,0,200,200" width="200mm" xmlns="http://www.w3.org/2000/svg" xmlns:ev="http://www.w3.org/2001/xml-events" xmlns:xlink="http://www.w3.org/1999/xlink"><defs /><rect fill="#1a1a1a" height="200" width="200" x="0" y="0" /><text alignment-baseline="middle" fill="#e1ed5e" style="dominant-baseline: central; font-size:9.0px; font-family:Arial;" text-anchor="middle" x="100.0" y="100.0">2021</text><line stroke="#e1ed5e" stroke-width="0.3" x1="100.0" x2="100.0" y1="15.0" y2="10.0" /><path d="M 100.0 14.0 a86.0,86.0 0 0,1 42.46469731375804,11.215312516191453" fill="none" id="id25" stroke="none" /><text fill="#e1ed5e" style="font-size:6.75px; font-family:Arial;" text-anchor="middle"><textPath startOffset="22.20632615414155" xlink:href="#id25">January</textPath></text><line stroke="#e1ed5e" stroke-width="0.3" x1="143.23703022742887" x2="145.7803849466894" y1="26.81831364943548" y2="22.513508569990506" /><path d="M 143.74570117128098 25.957352633546492 a86.0,86.0 0 0,1 28.547481713284135,27.462654790039103" fill="none" id="id26" stroke="none" /><text fill="#e1ed5e" style="font-size:6.75px; font-family:Arial;" text-anchor="middle"><textPath startOffset="19.985693538727396" xlink:href="#id26">February</textPath></text><line stroke="#e1ed5e" stroke-width="0.3" x1="172.23445277983987" x2="176.4835382374775" y1="55.19839476539836" y2="52.563006222186495" /><path d="M 173.08426987136738 54.67131705675599 a86.0,86.0 0 0,1 12.851231095245387,41.99856678651699" fill="none" id="id27" stroke="none" /><text fill="#e1ed5e" style="font-size:6.75px; font-family:Arial;" text-anchor="middle"><textPath startOffset="22.20632615414155" xlink:href="#id27">March</textPath></text><path d="M 118.56541770881063 90.18545643968196 l 20.688592978260907 -10.936952788865623 a44.40159857202114,44.40159857202114 0 0,0 0.3513869921562458,0.6787678246126146 l -20.873789403577266 10.579212241992664" fill="#ff0000" stroke="none" /><path d="M 118.73160827565052 90.50648371742162 l 23.475178741878448 -11.897643189141565 a47.318015320674704,47.318015320674704 0 0,0 0.36196025562779144,0.7296897882314425 l -23.676499010459647 11.491793812411172" fill="#ff4106" stroke="none" /><path d="M 119.04729006885535 91.15688171328212 l 25.679289921037565 -11.92216832261977 a49.31190612377732,49.31190612377732 0 0,0 0.35081354861967967,0.7729711522854191 l -25.88070578662059 11.47837516149229" fill="#ff6d0a" stroke="none" /><path d="M 119.196687751892 91.48605970444005 l 25.125371364235004 -11.143376110693104 a48.485616553664684,48.485616553664684 0 0,0 0.3318015970365295,0.7658438326712642 l -25.313463671114214 10.709233133435237" fill="#ff5b08" stroke="none" /><path d="M 119.34039704204932 91.81776055985345 l 28.1271112243621 -11.899588115848632 a51.54070371085909,51.54070371085909 0 0,0 0.338642826415364,0.820050465072849 l -28.32777573766366 11.413663080322479" fill="#ff9b0e" stroke="none" /><path d="M 119.61058180528143 92.48833698450437 l 23.16785943922263 -8.874247313302117 a45.809312291420476,45.809312291420476 0 0,0 0.27571842273960223,0.7387882943667567 l -23.31718245046386 8.474135881906026" fill="#ff2003" stroke="none" /><path d="M 119.7369772167798 92.82701384747503 l 28.273299688795777 -10.27533167447255 a51.08258493402584,51.08258493402584 0 0,0 0.2932308684794311,0.8290031520847649 l -28.445983638085018 9.787130895961171" fill="#ff920d" stroke="none" /><path d="M 119.97218684219823 93.5106431181261 l 37.587803473887305 -12.213017686797645 a60.52215544488441,60.52215544488441 0 0,0 0.3134025007218753,0.9935715722446805 l -37.79246145837738 11.564195948126546" fill="#b6ff1f" stroke="none" /><path d="M 120.08093135843002 93.85539295169968 l 31.639420058202898 -9.681413676669605 a54.08750024402293,54.08750024402293 0 0,0 0.26475600309785335,0.8926256251865828 l -31.801381958412453 9.135358664736492" fill="#ffcf13" stroke="none" /><path d="M 120.18372546131832 94.20196356495316 l 26.166798649688054 -7.5167516646114985 a48.225041912929285,48.225041912929285 0 0,0 0.2223248593887228,0.7998208090676455 l -26.29231027964314 7.065219552124901" fill="#ff5507" stroke="none" /><path d="M 120.28053869075195 94.5502522615342 l 33.84055131590445 -9.093568509912597 a56.04106022381224,56.04106022381224 0 0,0 0.2423206587714013,0.933760347064002 l -33.99206830654615 8.509711737299746" fill="#fff517" stroke="none" /><path d="M 120.37134235888165 94.90015583598534 l 40.956290253904 -10.253163201098396 a63.22019738218179,63.22019738218179 0 0,0 0.25519043328789637,1.0579290960717158 l -41.12671348745272 9.546648873367273" fill="#88ff25" stroke="none" /><path d="M 120.6074358757038 95.95851677861258 l 28.319880179439544 -5.554030169849962 a49.85936354990207,49.85936354990207 0 0,0 0.15792187965889926,0.8436249958592488 l -28.4112877830083 5.06572709652815" fill="#ff780b" stroke="none" /><path d="M 120.67395015179393 96.31383870115 l 33.78182483273933 -6.023292809969745 a55.31459959411616,55.31459959411616 0 0,0 0.15906408096394772,0.9388052099505707 l -33.8805007752235 5.440901811703337" fill="#ffe715" stroke="none" /><path d="M 120.73433829027371 96.67025291283417 l 32.21363319697148 -5.173217963505518 a53.626375033812124,53.626375033812124 0 0,0 0.13851975246657966,0.9126720969656923 l -32.297908842877355 4.617946754147744" fill="#ffc612" stroke="none" /><path d="M 120.78858239683441 97.02765380044208 l 35.95350983517194 -5.140623650009654 a57.31915308730153,57.31915308730153 0 0,0 0.13124448624065896,0.9779238666460812 l -36.03667032047044 4.5209814412989076" fill="#f1ff19" stroke="none" /><path d="M 120.83666639777658 97.38593545837742 l 34.91897096592169 -4.380760438805337 a56.1926923570943,56.1926923570943 0 0,0 0.1121436143077976,0.9607780024380904 l -34.989204933233076 3.779038698042394" fill="#fff817" stroke="none" /><path d="M 120.87857604477298 97.74499172005257 l 43.421485912173026 -4.689774343307495 a64.67401312236129,64.67401312236129 0 0,0 0.11001626868552408,1.1078488117931344 l -43.495779306540776 3.9416500008099256" fill="#70ff27" stroke="none" /><path d="M 120.94382443527127 98.46500227214037 l 35.47284346284878 -2.599846760770847 a56.56798878934911,56.56798878934911 0 0,0 0.06281581269697477,0.97173281948541 l -35.512339866550164 1.988854877032402" fill="#ffff18" stroke="none" /><path d="M 120.96714384426684 98.82574320788733 l 35.75695181192566 -2.002554274547987 a56.812984049125035,56.812984049125035 0 0,0 0.04627929345564041,0.9768827399877964 l -35.7861247136148 1.386760427937191" fill="#faff18" stroke="none" /><path d="M 120.98425023603335 99.18683210126433 l 36.63862246133532 -1.4197958613881518 a57.66612164045006,57.66612164045006 0 0,0 0.029899350094245648,0.9922138681388519 l -36.657633505885215 0.7889118458243009" fill="#eaff1a" stroke="none" /><line stroke="#e1ed5e" stroke-width="0.3" x1="184.98032266829074" x2="189.97916517819016" y1="98.17113171792111" y2="98.06355123074" /><path d="M 185.9800911702706 98.14961562048488 a86.0,86.0 0 0,1 -9.607161424134198,41.387399972396054" fill="none" id="id28" stroke="none" /><text fill="#e1ed5e" style="font-size:6.75px; font-family:Arial;" text-anchor="middle"><textPath startOffset="21.466115282336823" xlink:href="#id28">April</textPath></text><path d="M 120.99980553446 99.90962569577887 l 36.62495004660824 -0.1576183347109733 a57.62528920644841,57.62528920644841 0 0,0 -0.004268943743411645,0.9919521839953623 l -36.62223680557533 -0.4728433274880738" fill="#ebff1a" stroke="none" /><path d="M 120.99824983174949 100.27111621757518 l 32.34751617205563 0.4176508186534505 a53.350212282266746,53.350212282266746 0 0,0 -0.019759743184429336,0.9181576213605002 l -32.33553436618619 -0.9743982558040655" fill="#ffc011" stroke="none" /><path d="M 120.95626037817324 101.35467743843564 l 36.34603902570243 2.3495202939882747 a57.4218999843466,57.4218999843466 0 0,0 -0.07225162883898341,0.9858160713215541 l -36.30021083819911 -2.974809501806599" fill="#efff19" stroke="none" /><path d="M 120.92983693683757 101.71520430193887 l 37.58058724945262 3.0797366034992932 a58.706568599657196,58.706568599657196 0 0,0 -0.09120597627387561,1.006450348110794 l -37.52200667690167 -3.7261683401586576" fill="#d7ff1c" stroke="none" /><path d="M 120.8583938346157 102.4346265915055 l 31.599028139152797 3.688291379638227 a52.813551713697166,52.813551713697166 0 0,0 -0.11316810087761478,0.9020611110822715 l -31.530858529028333 -4.231670245007893" fill="#ffb510" stroke="none" /><path d="M 120.64145759157962 103.86396538481128 l 34.22030261862031 6.405849208539195 a55.81470975597088,55.81470975597088 0 0,0 -0.1849063380317499,0.9428334339817868 l -34.104966347612894 -6.993946369588927" fill="#fff016" stroke="none" /><path d="M 120.5718875245553 104.21870165774334 l 36.34102174585067 7.452496933026131 a58.09729871660678,58.09729871660678 0 0,0 -0.20933275975739196,0.9779329631224398 l -36.207354947368835 -8.07694371556474" fill="#e2ff1b" stroke="none" /><path d="M 120.49622156327973 104.57218783832717 l 34.67087767520118 7.734194556848733 a56.52305623411297,56.52305623411297 0 0,0 -0.22000774421199676,0.9477876039276557 l -34.53260936505863 -8.329850818124953" fill="#fffe18" stroke="none" /><path d="M 120.32669344350535 105.2749913415812 l 27.9271151691374 7.247380943781104 a49.85218002533857,49.85218002533857 0 0,0 -0.22270137651109714,0.8287546689433581 l -27.798225716284527 -7.72702654590001" fill="#ff780b" stroke="none" /><path d="M 120.13307415673323 105.97154293290107 l 35.18898306784937 10.437180209983762 a57.70421311082784,57.70421311082784 0 0,0 -0.2906457552726759,0.9498471448819589 l -35.004110540070556 -11.041354327417777" fill="#eaff1a" stroke="none" /><path d="M 120.02730092923936 106.31721596034902 l 35.907592347848585 11.326339793814178 a58.65157581488739,58.65157581488739 0 0,0 -0.31199216707766664,0.9602131563425726 l -35.70730792975467 -11.942751850134545" fill="#d8ff1c" stroke="none" /><path d="M 119.54520255179757 107.68017299344265 l 41.39679869212123 16.26662985393165 a65.47806413009485,65.47806413009485 0 0,0 -0.42123406130774377,1.0454683950118857 l -41.11066201655609 -16.97679761678635" fill="#62ff29" stroke="none" /><path d="M 119.41010516605496 108.01547362559984 l 43.657870370663964 18.028676584292683 a68.23391604221189,68.23391604221189 0 0,0 -0.4576514344739008,1.081752803048027 l -43.341067954997754 -18.77750391300687" fill="#37ff2e" stroke="none" /><path d="M 118.97047184881838 109.00673069616215 l 40.6434827448587 19.296562919169403 a65.99166622970404,65.99166622970404 0 0,0 -0.4960271240441675,1.0219627939120537 l -40.30530236419982 -19.993314669046732" fill="#5aff2a" stroke="none" /><path d="M 118.64920377521936 109.65438752849418 l 36.33925998671709 18.812240063388042 a61.91994858971306,61.91994858971306 0 0,0 -0.4981533335750281,0.9423183731386088 l -36.01005414491716 -19.434973451612787" fill="#9eff22" stroke="none" /><line stroke="#e1ed5e" stroke-width="0.3" x1="174.80103733775053" x2="179.2010983576182" y1="140.37084112569926" y2="142.7455964860345" /><path d="M 175.68104954172406 140.8457921977663 a86.0,86.0 0 0,1 -30.038265399797805,32.042727171017184" fill="none" id="id29" stroke="none" /><text fill="#e1ed5e" style="font-size:6.75px; font-family:Arial;" text-anchor="middle"><textPath startOffset="22.206326154141568" xlink:href="#id29">May</textPath></text><path d="M 118.48025628344425 109.97397251340804 l 26.90715104040294 14.5220488706924 a51.575883969459255,51.575883969459255 0 0,0 -0.42838337465073395,0.7776402573535638 l -26.653191256300698 -14.983059646443769" fill="#ff9c0e" stroke="none" /><path d="M 116.71984013943494 112.70617746262583 l 27.385039901435903 20.81115452701293 a55.395414856495734,55.395414856495734 0 0,0 -0.5834803868397042,0.7542270539379897 l -27.02275269737813 -21.279459575064173" fill="#ffe815" stroke="none" /><path d="M 116.27256486870786 113.27417163493432 l 33.693865594349546 27.485412321439366 a64.48246162730007,64.48246162730007 0 0,0 -0.7090123012597467,0.854050991201275 l -33.215757293196255 -28.06132456975441" fill="#73ff27" stroke="none" /><path d="M 116.0416608686014 113.55231037782055 l 32.064701139124715 27.08888970842337 a62.975623935523714,62.975623935523714 0 0,0 -0.7066989283266627,0.8220505102532606 l -31.59365970122727 -27.636817317838158" fill="#8cff24" stroke="none" /><path d="M 115.80600337817218 113.82643327865902 l 28.848232678904658 25.23523213293351 a59.328024596882926,59.328024596882926 0 0,0 -0.6789983657003106,0.7628618618765527 l -28.40957546355601 -25.72806816455093" fill="#ccff1d" stroke="none" /><path d="M 115.56566222782051 114.09645910891815 l 23.123593068562595 20.94101615282812 a52.19658176649301,52.19658176649301 0 0,0 -0.6088447711451175,0.6607807507753187 l -22.759701889421756 -21.335948158404772" fill="#ffa90f" stroke="none" /><path d="M 114.29624159901734 115.38237550388516 l 42.88872479705202 46.14712651165547 a84.0,84.0 0 0,0 -1.0676018021325442,0.9752289336536681 l -42.088023445452606 -46.878548211895726" fill="#4dd2ff" stroke="none" /><path d="M 114.0293411484842 115.62618273729858 l 37.34303963879003 41.5934829145533 a76.89740987226045,76.89740987226045 0 0,0 -0.9925538565501263,0.8758133761474208 l -36.62154342933332 -42.230119432473" fill="#3fffc0" stroke="none" /><path d="M 113.20401910651253 116.32954008644616 l 30.98219117049823 38.31598005148714 a70.27484649424348,70.27484649424348 0 0,0 -0.947179464315902,0.7524966511929106 l -30.318054213464976 -38.843610616685176" fill="#32ff4c" stroke="none" /><line stroke="#e1ed5e" stroke-width="0.3" x1="143.8653032363475" x2="146.44561519142675" y1="172.8068346515853" y2="177.08958963109032" /><path d="M 144.38136562736335 173.6633856474863 a86.0,86.0 0 0,1 -40.68145358897372,12.25698825130547" fill="none" id="id30" stroke="none" /><text fill="#e1ed5e" style="font-size:6.75px; font-family:Arial;" text-anchor="middle"><textPath startOffset="21.466115282336833" xlink:href="#id30">June</textPath></text><line stroke="#e1ed5e" stroke-width="0.3" x1="102.19456741930631" x2="102.32365962044197" y1="184.97166512339345" y2="189.96999836594603" /><path d="M 102.22038585953345 185.97133177190398 a86.0,86.0 0 0,1 -42.740103519485714,-10.115201625700543" fill="none" id="id31" stroke="none" /><text fill="#e1ed5e" style="font-size:6.75px; font-family:Arial;" text-anchor="middle"><textPath startOffset="22.20632615414155" xlink:href="#id31">July</textPath></text><line stroke="#e1ed5e" stroke-width="0.3" x1="58.666819895761336" x2="56.23545636021788" y1="174.27360380694188" y2="178.64263932499728" /><path d="M 58.180547188652646 175.14741091055294 a86.0,86.0 0 0,1 -31.652253787137756,-30.449443065178592" fill="none" id="id32" stroke="none" /><text fill="#e1ed5e" style="font-size:6.75px; font-family:Arial;" text-anchor="middle"><textPath startOffset="22.20632615414155" xlink:href="#id32">August</textPath></text><line stroke="#e1ed5e" stroke-width="0.3" x1="26.63291911575756" x2="22.317208475507996" y1="142.92168965132927" y2="145.44649492493687" /><path d="M 25.769776987707644 143.4266507060508 a86.0,86.0 0 0,1 -11.730757126820373,-40.83630448921669" fill="none" id="id33" stroke="none" /><text fill="#e1ed5e" style="font-size:6.75px; font-family:Arial;" text-anchor="middle"><textPath startOffset="21.46611528233685" xlink:href="#id33">September</textPath></text><line stroke="#e1ed5e" stroke-width="0.3" x1="15.007084014347285" x2="10.007500721073583" y1="101.09737516637583" y2="101.16192664675087" /><path d="M 14.007167355692545 101.11028546245083 a86.0,86.0 0 0,1 10.666146001902534,-42.60595125391555" fill="none" id="id34" stroke="none" /><text fill="#e1ed5e" style="font-size:6.75px; font-family:Arial;" text-anchor="middle"><textPath startOffset="22.20632615414155" xlink:href="#id34">October</textPath></text><line stroke="#e1ed5e" stroke-width="0.3" x1="26.266209847984243" x2="21.928928074336255" y1="57.711370442889674" y2="55.22380399835377" /><path d="M 25.398753493254645 57.213857153982495 a86.0,86.0 0 0,1 29.58750427330803,-30.492523968695096" fill="none" id="id35" stroke="none" /><text fill="#e1ed5e" style="font-size:6.75px; font-family:Arial;" text-anchor="middle"><textPath startOffset="21.46611528233685" xlink:href="#id35">November</textPath></text><line stroke="#e1ed5e" stroke-width="0.3" x1="56.762969772571076" x2="54.21961505331055" y1="26.818313649435495" y2="22.513508569990535" /><path d="M 56.25429882871897 25.957352633546506 a86.0,86.0 0 0,1 42.265352541879196,-11.944610805530505" fill="none" id="id36" stroke="none" /><text fill="#e1ed5e" style="font-size:6.75px; font-family:Arial;" text-anchor="middle"><textPath startOffset="22.20632615414155" xlink:href="#id36">December</textPath></text></svg>