<?xml version="1.0" encoding="utf-8" ?>
<svg baseProfile="full" height="200mm" version="1.1" viewBox="0,0,200,200" width="200mm" xmlns="http://www.w3.org/2000/svg" xmlns:ev="http://www.w3.org/2001/xml-events" xmlns:xlink="http://www.w3.org/1999/xlink"><defs /><rect fill="#1a1a1a" height="200" width="200" x="0" y="0" /><text alignment-baseline="middle" fill="#e1ed5e" style="dominant-baseline: central; font-size:9.0px; font-family:Arial;" text-anchor="middle" x="100.0" y="100.0">2020</text><line stroke="#e1ed5e" stroke-width="0.3" x1="100.0" x2="100.0" y1="15.0" y2="10.0" /><path d="M 100.0 14.0 a86.0,86.0 0 0,1 42.35913384403234,11.155469271406648" fill="none" id="id13" stroke="none" /><text fill="#e1ed5e" style="font-size:6.75px; font-family:Arial;" text-anchor="middle"><textPath startOffset="22.145653131862478" xlink:href="#id13">January</textPath></text><line stroke="#e1ed5e" stroke-width="0.3" x1="143.13028292997686" x2="145.6673583964461" y1="26.7553504044142" y2="22.446841604673864" /><path d="M 143.63769802327073 25.89364864446614 a86.0,86.0 0 0,1 29.32050498858742,28.57503671076992" fill="none" id="id14" stroke="none" /><text fill="#e1ed5e" style="font-size:6.75px; font-family:Arial;" text-anchor="middle"><textPath startOffset="20.669276256404974" xlink:href="#id14">February</textPath></text><line stroke="#e1ed5e" stroke-width="0.3" x1="172.87174338648825" x2="177.1583165268699" y1="56.24261187166439" y2="53.66864786411523" /><path d="M 173.72905801456457 55.72781907015455 a86.0,86.0 0 0,1 12.242430191666344,42.057860355516425" fill="none" id="id15" stroke="none" /><text fill="#e1ed5e" style="font-size:6.75px; font-family:Arial;" text-anchor="middle"><textPath startOffset="22.145653131862474" xlink:href="#id15">March</textPath></text><path d="M 120.82617615685814 97.30363454192243 l 24.24883429579619 -3.139497078166244 a45.451225053334156,45.451225053334156 0 0,0 0.09353843446417189,0.7746324208650134 l -24.299154816520026 2.7227709803778177" fill="#ff0000" stroke="none" /><line stroke="#e1ed5e" stroke-width="0.3" x1="184.99686870605535" x2="189.99668451229388" y1="99.2704041080226" y2="99.22748670261217" /><path d="M 185.99683186730306 99.26182062694052 a86.0,86.0 0 0,1 -10.086455211305974,41.156179273409016" fill="none" id="id16" stroke="none" /><text fill="#e1ed5e" style="font-size:6.75px; font-family:Arial;" text-anchor="middle"><textPath startOffset="21.40746469413373" xlink:href="#id16">April</textPath></text><path d="M 119.0197475246899 108.90220220490707 l 32.38654658216309 15.158539093055525 a56.75849139651046,56.75849139651046 0 0,0 -0.4206094546762338,0.8789119906566945 l -32.121557869526946 -15.712263585777322" fill="#fff417" stroke="none" /><path d="M 118.8641267826498 109.22738970284198 l 29.157666015594515 14.262475557504134 a53.459015642889696,53.459015642889696 0 0,0 -0.410310894330301,0.8208966450321866 l -28.90853520805248 -14.760904058700067" fill="#ffb110" stroke="none" /><path d="M 118.5362547648365 109.86951160357373 l 30.15798708660001 16.057429468236524 a55.166434204390185,55.166434204390185 0 0,0 -0.4522456282583428,0.8320810185086592 l -29.87789610872633 -16.572765320219787" fill="#ffd513" stroke="none" /><line stroke="#e1ed5e" stroke-width="0.3" x1="174.33088141563837" x2="178.70328620479359" y1="141.23008692659167" y2="143.65538615756765" /><path d="M 175.20536237346943 141.71514677278685 a86.0,86.0 0 0,1 -30.301960400862466,31.63118572779886" fill="none" id="id17" stroke="none" /><text fill="#e1ed5e" style="font-size:6.75px; font-family:Arial;" text-anchor="middle"><textPath startOffset="22.145653131862474" xlink:href="#id17">May</textPath></text><path d="M 118.36410011445183 110.18625677009912 l 24.098801429432914 13.367198919736598 a48.55783440865855,48.55783440865855 0 0,0 -0.4105833932283103,0.7254615144935498 l -23.865784671183224 -13.77891720432927" fill="#ff4706" stroke="none" /><path d="M 115.89218393027572 113.72728997021213 l 26.037687049385738 22.490733926105133 a55.406311331158506,55.406311331158506 0 0,0 -0.6279090039848466,0.7144451828687023 l -25.647766981442306 -22.93439138678513" fill="#ffd914" stroke="none" /><path d="M 114.65682725009322 115.03919595460226 l 26.71116177339857 27.408005104424458 a59.27120205962737,59.27120205962737 0 0,0 -0.734758318664647,0.7038818483751419 l -26.23673096886861 -27.86249908310518" fill="#d9ff1c" stroke="none" /><path d="M 114.13192950727249 115.5334660781643 l 25.19024272581648 27.688489436692343 a58.432616471085396,58.432616471085396 0 0,0 -0.7477565533331896,0.6686485208862596 l -24.711221145659913 -28.116833487461992" fill="#e9ff1a" stroke="none" /><path d="M 113.86319453409587 115.77377054828091 l 32.48527127762057 36.962275474933726 a70.20876607135651,70.20876607135651 0 0,0 -0.9121139087997837,0.7878622703393912 l -31.845977889057927 -37.514481877737836" fill="#31ff44" stroke="none" /><line stroke="#e1ed5e" stroke-width="0.3" x1="143.1302829299769" x2="145.6673583964461" y1="173.24464959558577" y2="177.55315839532614" /><path d="M 143.63769802327073 174.10635135553383 a86.0,86.0 0 0,1 -40.685524379131806,11.842963189579606" fill="none" id="id18" stroke="none" /><text fill="#e1ed5e" style="font-size:6.75px; font-family:Arial;" text-anchor="middle"><textPath startOffset="21.407464694133747" xlink:href="#id18">June</textPath></text><line stroke="#e1ed5e" stroke-width="0.3" x1="101.45913802915013" x2="101.54496967792366" y1="184.9874750549273" y2="189.98673829345242" /><path d="M 101.47630435890484 185.9873277026323 a86.0,86.0 0 0,1 -42.54439059252881,-10.42667462771756" fill="none" id="id19" stroke="none" /><text fill="#e1ed5e" style="font-size:6.75px; font-family:Arial;" text-anchor="middle"><textPath startOffset="22.145653131862474" xlink:href="#id19">July</textPath></text><path d="M 91.26138138417905 119.09545874513695 l -14.660850957029778 32.036605203448765 a56.23186943302727,56.23186943302727 0 0,0 -0.8743019052375328,-0.40921743774234975 l 15.2086415761388 -31.780211534135887" fill="#ffea16" stroke="none" /><line stroke="#e1ed5e" stroke-width="0.3" x1="58.13341422392154" x2="55.670673884152215" y1="173.97424548756322" y2="178.32567169271397" /><path d="M 57.64086615596767 174.84453072859336 a86.0,86.0 0 0,1 -31.369924170532244,-30.572349798747886" fill="none" id="id20" stroke="none" /><text fill="#e1ed5e" style="font-size:6.75px; font-family:Arial;" text-anchor="middle"><textPath startOffset="22.145653131862474" xlink:href="#id20">August</textPath></text><line stroke="#e1ed5e" stroke-width="0.3" x1="26.387840678322732" x2="22.057713659400548" y1="142.50000000000003" y2="145.00000000000006" /><path d="M 25.521815274538298 143.00000000000003 a86.0,86.0 0 0,1 -11.493303480769221,-40.785679425670985" fill="none" id="id21" stroke="none" /><text fill="#e1ed5e" style="font-size:6.75px; font-family:Arial;" text-anchor="middle"><textPath startOffset="21.40746469413373" xlink:href="#id21">September</textPath></text><path d="M 81.81346652052679 110.50000000000001 l -35.7376630846732 20.633149402144248 a62.26629880428846,62.26629880428846 0 0,0 -0.5264960548214703,-0.9302680809919365 l 36.08659250451605 -20.01662455105319" fill="#a2ff22" stroke="none" /><path d="M 81.63589988554817 110.18625677009913 l -34.813276111332826 19.31033741203168 a60.810216334132214,60.810216334132214 0 0,0 -0.49851245394374777,-0.9172067666286271 l 35.13963391489191 -18.709875811928466" fill="#bdff1f" stroke="none" /><path d="M 80.9802524753101 108.90220220490707 l -49.068419003477615 22.9664977033487 a75.17720701788497,75.17720701788497 0 0,0 -0.537035663880488,-1.1735198450852335 l 49.45543913221316 -22.120788876048778" fill="#3bff9f" stroke="none" /><path d="M 80.83023694016515 108.57439118712176 l -53.62937726938094 23.98773831445416 a79.74965272871258,79.74965272871258 0 0,0 -0.5482451321399595,-1.2544921532617908 l 54.03325628353787 -23.063584091416516" fill="#45ffeb" stroke="none" /><path d="M 80.68587082218212 108.24405325689762 l -54.89071269065926 23.429581244106966 a80.6819538634813,80.6819538634813 0 0,0 -0.5327858006268813,-1.2784919676440472 l 55.28482433582263 -22.48385676702164" fill="#46fffa" stroke="none" /><path d="M 80.41425534168474 107.57618678355246 l -58.16051172696121 22.497735366083052 a83.36018939150439,83.36018939150439 0 0,0 -0.5048027753341296,-1.339049335751332 l 58.53814518610978 -21.496017750137575" fill="#4cdbff" stroke="none" /><path d="M 80.05021161711548 106.5578916946017 l -57.35334842772722 18.853184810444937 a81.37258610800991,81.37258610800991 0 0,0 -0.424824124090061,-1.3307555180049657 l 57.66853726759454 -17.865860258748576" fill="#48f9ff" stroke="none" /><path d="M 79.94057633289273 106.21446072829308 l -60.17827100132179 18.643382184879247 a84.0,84.0 0 0,0 -0.41489471998548133,-1.3810495856371061 l 60.4894420413109 -17.607594995651418" fill="#4dd2ff" stroke="none" /><path d="M 79.83685265289637 105.86919833188381 l -56.582081978023545 16.470219427704194 a79.93046859617274,79.93046859617274 0 0,0 -0.3721772261199807,-1.3207256781710706 l 56.85647769621811 -15.49648582563013" fill="#45ffee" stroke="none" /><line stroke="#e1ed5e" stroke-width="0.3" x1="15.003131293944662" x2="10.003315487706104" y1="100.72959589197737" y2="100.7725132973878" /><path d="M 14.003168132696942 100.73817937305945 a86.0,86.0 0 0,1 10.791469493833604,-42.453326145846276" fill="none" id="id22" stroke="none" /><text fill="#e1ed5e" style="font-size:6.75px; font-family:Arial;" text-anchor="middle"><textPath startOffset="22.145653131862435" xlink:href="#id22">October</textPath></text><line stroke="#e1ed5e" stroke-width="0.3" x1="26.387840678322718" x2="22.05771365940052" y1="57.5" y2="55.0" /><path d="M 25.521815274538284 57.0 a86.0,86.0 0 0,1 29.574782752854787,-30.346332500585742" fill="none" id="id23" stroke="none" /><text fill="#e1ed5e" style="font-size:6.75px; font-family:Arial;" text-anchor="middle"><textPath startOffset="21.40746469413373" xlink:href="#id23">November</textPath></text><line stroke="#e1ed5e" stroke-width="0.3" x1="56.869717070023135" x2="54.33264160355391" y1="26.7553504044142" y2="22.446841604673864" /><path d="M 56.362301976729285 25.89364864446614 a86.0,86.0 0 0,1 42.16139366436587,-11.88097634709845" fill="none" id="id24" stroke="none" /><text fill="#e1ed5e" style="font-size:6.75px; font-family:Arial;" text-anchor="middle"><textPath startOffset="22.145653131862474" xlink:href="#id24">December</textPath></text></svg>