<?xml version="1.0" encoding="utf-8" ?>
<svg baseProfile="full" height="200mm" version="1.1" viewBox="0,0,200,200" width="200mm" xmlns="http://www.w3.org/2000/svg" xmlns:ev="http://www.w3.org/2001/xml-events" xmlns:xlink="http://www.w3.org/1999/xlink"><defs /><rect fill="#1a1a1a" height="200" width="200" x="0" y="0" /><text alignment-baseline="middle" fill="#e1ed5e" style="dominant-baseline: central; font-size:9.0px; font-family:Arial;" text-anchor="middle" x="100.0" y="100.0">2021</text><line stroke="#e1ed5e" stroke-width="0.3" x1="100.0" x2="100.0" y1="15.0" y2="10.0" /><path d="M 100.0 14.0 a86.0,86.0 0 0,1 42.46469731375804,11.215312516191453" fill="none" id="id25" stroke="none" /><text fill="#e1ed5e" style="font-size:6.75px; font-family:Arial;" text-anchor="middle"><textPath startOffset="22.20632615414155" xlink:href="#id25">January</textPath></text><line stroke="#e1ed5e" stroke-width="0.3" x1="143.23703022742887" x2="145.7803849466894" y1="26.81831364943548" y2="22.513508569990506" /><path d="M 143.74570117128098 25.957352633546492 a86.0,86.0 0 0,1 28.547481713284135,27.462654790039103" fill="none" id="id26" stroke="none" /><text fill="#e1ed5e" style="font-size:6.75px; font-family:Arial;" text-anchor="middle"><textPath startOffset="19.985693538727396" xlink:href="#id26">February</textPath></text><line stroke="#e1ed5e" stroke-width="0.3" x1="172.23445277983987" x2="176.4835382374775" y1="55.19839476539836" y2="52.563006222186495" /><path d="M 173.08426987136738 54.67131705675599 a86.0,86.0 0 0,1 12.851231095245387,41.99856678651699" fill="none" id="id27" stroke="none" /><text fill="#e1ed5e" style="font-size:6.75px; font-family:Arial;" text-anchor="middle"><textPath startOffset="22.20632615414155" xlink:href="#id27">March</textPath></text><path d="M 118.56541770881063 90.18545643968196 l 29.843407199122247 -15.776613515412178 a54.75693243272125,54.75693243272125 0 0,0 0.43333741140034066,0.8370699502976541 l -30.110554043682704 15.260570842854179" fill="#ff0000" stroke="none" /><path d="M 118.73160827565052 90.50648371742162 l 33.86307222546306 -17.162414610626758 a58.96387935675149,58.96387935675149 0 0,0 0.4510455626707317,0.9092803311708895 l -34.15347780108719 16.57697469095692" fill="#ff7d0b" stroke="none" /><path d="M 119.04729006885535 91.15688171328212 l 37.0425145152747 -17.197792248234695 a61.840077617798165,61.840077617798165 0 0,0 0.43994115785265864,0.9693520249179864 l -37.333057990090715 16.557618214474648" fill="#ffcd13" stroke="none" /><path d="M 119.196687751892 91.48605970444005 l 36.243484002992936 -16.074380272927602 a60.648150446570504,60.648150446570504 0 0,0 0.4150334595252834,0.9579544467794212 l -36.5148081723609 15.448126681561577" fill="#ffac10" stroke="none" /><path d="M 119.34039704204932 91.81776055985345 l 40.57350997652047 -17.165220177914613 a65.0551301844756,65.0551301844756 0 0,0 0.4274379582025126,1.0350749198621045 l -40.86296962160918 16.464270687599207" fill="#deff1b" stroke="none" /><path d="M 119.61058180528143 92.48833698450437 l 33.419762470230076 -12.801149717376969 a56.78756708206495,56.78756708206495 0 0,0 0.3417946623490076,0.915839765480479 l -33.635161721080706 12.223986814867157" fill="#ff3e05" stroke="none" /><path d="M 119.7369772167798 92.82701384747503 l 40.78438762665806 -14.822221481641826 a64.39429137262577,64.39429137262577 0 0,0 0.36964444944788083,1.0450346354460496 l -41.03348515691575 14.117989219769163" fill="#eeff19" stroke="none" /><path d="M 119.97218684219823 93.5106431181261 l 54.220609684308045 -17.617344028188352 a78.01092285821747,78.01092285821747 0 0,0 0.40396476509584023,1.280678698680568 l -54.51582993317209 16.681415163081365" fill="#3dffaf" stroke="none" /><path d="M 120.08093135843002 93.85539295169968 l 45.640034454406766 -13.965491559508157 a68.72889794975504,68.72889794975504 0 0,0 0.33642501939268726,1.1342579195562748 l -45.873665370911155 13.177804253205352" fill="#86ff25" stroke="none" /><path d="M 120.18372546131832 94.20196356495316 l 37.7457484914823 -10.84295490647416 a60.27227011882647,60.27227011882647 0 0,0 0.27786443407143263,0.9996262095079488 l -37.92679969612009 10.19161739354726" fill="#ffa20f" stroke="none" /><path d="M 120.28053869075195 94.5502522615342 l 48.81517819140849 -13.117521728983698 a71.54691878017218,71.54691878017218 0 0,0 0.3093677461246268,1.1921201248642062 l -49.03374226940342 12.275305178570642" fill="#48ff2c" stroke="none" /><path d="M 120.37134235888165 94.90015583598534 l 59.07967007215221 -14.790243338972434 a81.9028629364858,81.9028629364858 0 0,0 0.3306036353213248,1.3705655050122176 l -59.32550650773436 13.771092602300811" fill="#47fbff" stroke="none" /><path d="M 120.6074358757038 95.95851677861258 l 40.851580236193065 -8.01171854118886 a62.62978791415288,62.62978791415288 0 0,0 0.19837023832328202,1.0597017452270834 l -40.983436198426205 7.307338718499214" fill="#ffe215" stroke="none" /><path d="M 120.67395015179393 96.31383870115 l 48.73046492200878 -8.688632436065394 a70.49899539510045,70.49899539510045 0 0,0 0.2027287188859279,1.1965163746795286 l -48.87280550241493 7.848530273070027" fill="#5fff29" stroke="none" /><path d="M 120.73433829027371 96.67025291283417 l 46.468340010872744 -7.462394875134082 a68.06372234150741,68.06372234150741 0 0,0 0.17581218131479207,1.1583826085120772 l -46.58990808562684 6.661413154229923" fill="#95ff23" stroke="none" /><path d="M 120.78858239683441 97.02765380044208 l 51.863132276619325 -7.415377401734366 a73.39057464422648,73.39057464422648 0 0,0 0.16804345049232997,1.2521188933504985 l -51.9830917261695 6.521540166319204" fill="#31ff40" stroke="none" /><path d="M 120.83666639777658 97.38593545837742 l 50.370804365736426 -6.3192706122861235 a71.76564895204822,71.76564895204822 0 0,0 0.14322252447850953,1.2270431252101612 l -50.47211724321853 5.451283748751109" fill="#44ff2d" stroke="none" /><path d="M 120.87857604477298 97.74499172005257 l 62.63572813431897 -6.7650248398422885 a84.0,84.0 0 0,0 0.1428914972710853,1.43889787718226 l -62.74289675727228 5.6858514319555935" fill="#4dd2ff" stroke="none" /><path d="M 120.94382443527127 98.46500227214037 l 51.16976843639886 -3.7502930053547554 a72.3070160841643,72.3070160841643 0 0,0 0.08029318482461588,1.2421000306320125 l -51.2267422122279 2.868933910469708" fill="#38ff2e" stroke="none" /><path d="M 120.96714384426684 98.82574320788733 l 51.579596265632155 -2.888695365435246 a72.66042307066311,72.66042307066311 0 0,0 0.05918846014126925,1.2493748456614477 l -51.62167833400692 2.0004094131507983" fill="#31ff2f" stroke="none" /><path d="M 120.98425023603335 99.18683210126433 l 52.85141094309694 -2.048063204470125 a73.89107865761116,73.89107865761116 0 0,0 0.038311840067906396,1.2713834551410685 l -52.87883447762049 1.138009601904057" fill="#32ff4d" stroke="none" /><line stroke="#e1ed5e" stroke-width="0.3" x1="184.98032266829074" x2="189.97916517819016" y1="98.17113171792111" y2="98.06355123074" /><path d="M 185.9800911702706 98.14961562048488 a86.0,86.0 0 0,1 -9.607161424134198,41.387399972396054" fill="none" id="id28" stroke="none" /><text fill="#e1ed5e" style="font-size:6.75px; font-family:Arial;" text-anchor="middle"><textPath startOffset="21.466115282336823" xlink:href="#id28">April</textPath></text><path d="M 120.99980553446 99.90962569577887 l 52.831688410949674 -0.2273652997944248 a73.83217765085237,73.83217765085237 0 0,0 -0.005469567566348861,1.270934877350708 l -52.82777454609382 -0.6820790557599681" fill="#32ff4b" stroke="none" /><path d="M 120.99824983174949 100.27111621757518 l 46.66146692610884 0.6024635634341448 a67.66535607966165,67.66535607966165 0 0,0 -0.02506175704686943,1.164521371684666 l -46.64418310637696 -1.4055747509089258" fill="#9fff22" stroke="none" /><path d="M 120.95626037817324 101.35467743843564 l 52.42935775569626 3.3891957239320996 a73.53878759859145,73.53878759859145 0 0,0 -0.09253084952414825,1.2625099256547803 l -52.36325034750777 -4.29117878608365" fill="#31ff44" stroke="none" /><path d="M 120.92983693683757 101.71520430193887 l 54.21020024155517 4.442536697437464 a75.39192902019184,75.39192902019184 0 0,0 -0.11712819627303994,1.2924998857378187 l -54.12569744900506 -5.375017971723853" fill="#36ff72" stroke="none" /><line stroke="#e1ed5e" stroke-width="0.3" x1="174.80103733775053" x2="179.2010983576182" y1="140.37084112569926" y2="142.7455964860345" /><path d="M 175.68104954172406 140.8457921977663 a86.0,86.0 0 0,1 -30.038265399797805,32.042727171017184" fill="none" id="id29" stroke="none" /><text fill="#e1ed5e" style="font-size:6.75px; font-family:Arial;" text-anchor="middle"><textPath startOffset="22.206326154141568" xlink:href="#id29">May</textPath></text><line stroke="#e1ed5e" stroke-width="0.3" x1="143.8653032363475" x2="146.44561519142675" y1="172.8068346515853" y2="177.08958963109032" /><path d="M 144.38136562736335 173.6633856474863 a86.0,86.0 0 0,1 -40.68145358897372,12.25698825130547" fill="none" id="id30" stroke="none" /><text fill="#e1ed5e" style="font-size:6.75px; font-family:Arial;" text-anchor="middle"><textPath startOffset="21.466115282336833" xlink:href="#id30">June</textPath></text><line stroke="#e1ed5e" stroke-width="0.3" x1="102.19456741930631" x2="102.32365962044197" y1="184.97166512339345" y2="189.96999836594603" /><path d="M 102.22038585953345 185.97133177190398 a86.0,86.0 0 0,1 -42.740103519485714,-10.115201625700543" fill="none" id="id31" stroke="none" /><text fill="#e1ed5e" style="font-size:6.75px; font-family:Arial;" text-anchor="middle"><textPath startOffset="22.20632615414155" xlink:href="#id31">July</textPath></text><line stroke="#e1ed5e" stroke-width="0.3" x1="58.666819895761336" x2="56.23545636021788" y1="174.27360380694188" y2="178.64263932499728" /><path d="M 58.180547188652646 175.14741091055294 a86.0,86.0 0 0,1 -31.652253787137756,-30.449443065178592" fill="none" id="id32" stroke="none" /><text fill="#e1ed5e" style="font-size:6.75px; font-family:Arial;" text-anchor="middle"><textPath startOffset="22.20632615414155" xlink:href="#id32">August</textPath></text><line stroke="#e1ed5e" stroke-width="0.3" x1="26.63291911575756" x2="22.317208475507996" y1="142.92168965132927" y2="145.44649492493687" /><path d="M 25.769776987707644 143.4266507060508 a86.0,86.0 0 0,1 -11.730757126820373,-40.83630448921669" fill="none" id="id33" stroke="none" /><text fill="#e1ed5e" style="font-size:6.75px; font-family:Arial;" text-anchor="middle"><textPath startOffset="21.46611528233685" xlink:href="#id33">September</textPath></text><line stroke="#e1ed5e" stroke-width="0.3" x1="15.007084014347285" x2="10.007500721073583" y1="101.09737516637583" y2="101.16192664675087" /><path d="M 14.007167355692545 101.11028546245083 a86.0,86.0 0 0,1 10.666146001902534,-42.60595125391555" fill="none" id="id34" stroke="none" /><text fill="#e1ed5e" style="font-size:6.75px; font-family:Arial;" text-anchor="middle"><textPath startOffset="22.20632615414155" xlink:href="#id34">October</textPath></text><line stroke="#e1ed5e" stroke-width="0.3" x1="26.266209847984243" x2="21.928928074336255" y1="57.711370442889674" y2="55.22380399835377" /><path d="M 25.398753493254645 57.213857153982495 a86.0,86.0 0 0,1 29.58750427330803,-30.492523968695096" fill="none" id="id35" stroke="none" /><text fill="#e1ed5e" style="font-size:6.75px; font-family:Arial;" text-anchor="middle"><textPath startOffset="21.46611528233685" xlink:href="#id35">November</textPath></text><line stroke="#e1ed5e" stroke-width="0.3" x1="56.762969772571076" x2="54.21961505331055" y1="26.818313649435495" y2="22.513508569990535" /><path d="M 56.25429882871897 25.957352633546506 a86.0,86.0 0 0,1 42.265352541879196,-11.944610805530505" fill="none" id="id36" stroke="none" /><text fill="#e1ed5e" style="font-size:6.75px; font-family:Arial;" text-anchor="middle"><textPath startOffset="22.20632615414155" xlink:href="#id36">December</textPath></text></svg>